<?xml version="1.0" encoding="UTF-8"?>
<svg width="92" height="86.409" version="1.1" viewBox="0 0 92 86.409" xmlns="http://www.w3.org/2000/svg" xmlns:cc="http://creativecommons.org/ns#" xmlns:dc="http://purl.org/dc/elements/1.1/" xmlns:rdf="http://www.w3.org/1999/02/22-rdf-syntax-ns#">
 <title>Preplan_Alarm_VC</title>
 <metadata>
  <rdf:RDF>
   <cc:Work rdf:about="">
    <dc:format>image/svg+xml</dc:format>
    <dc:type rdf:resource="http://purl.org/dc/dcmitype/StillImage"/>
    <dc:title>Preplan_Alarm_VC</dc:title>
   </cc:Work>
  </rdf:RDF>
 </metadata>
 <path d="m3.5774 80.384c1.1893-2.2549 7.7151-14.662 14.502-27.57 24.537-46.673 26.728-50.804 26.998-50.893 0.2622-0.086598 0.24736-0.11382 27.779 51.043 16.426 30.522 16.741 31.112 16.741 31.365 0 0.10567-13.983 0.15478-44.091 0.15478h-44.091z" fill="#fc0000" opacity=".98" stroke="#000" stroke-width="1.8"/>
 <g transform="translate(35.474 32.651)">
  <g transform="matrix(3.5971 0 0 5.4892 -37.755 -34.884)" fill="#fff" fill-rule="evenodd" stroke="#000" stroke-width=".1664" aria-label="CP">
   <path d="m10.202 15.251q-0.74675 0-1.381-0.22042-0.62979-0.22042-1.0841-0.65678-0.45435-0.43635-0.70626-1.0886-0.24742-0.65228-0.24742-1.507 0-0.79623 0.23842-1.444 0.23842-0.64778 0.69276-1.1111 0.43635-0.44535 1.0796-0.68827 0.64778-0.24292 1.4125-0.24292 0.42286 0 0.76024 0.049483 0.34188 0.044985 0.62979 0.12146 0.3014 0.085471 0.54431 0.19343 0.24742 0.10346 0.43185 0.19343v1.6239h-0.19793q-0.12596-0.10796-0.31939-0.25641-0.18894-0.14845-0.43185-0.2924-0.24742-0.14395-0.53532-0.24292-0.2879-0.098966-0.61629-0.098966-0.36438 0-0.69276 0.11696-0.32839 0.11246-0.60729 0.37787-0.26541 0.25641-0.43185 0.67927-0.16194 0.42286-0.16194 1.0257 0 0.62978 0.17544 1.0526 0.17994 0.42286 0.44985 0.66577 0.27441 0.24742 0.61179 0.35538 0.33739 0.10346 0.66577 0.10346 0.31489 0 0.62079-0.09447 0.31039-0.09447 0.57131-0.25641 0.22042-0.13046 0.40936-0.2789 0.18894-0.14845 0.31039-0.25641h0.17994v1.6015q-0.25191 0.11246-0.48134 0.21143-0.22942 0.09897-0.48134 0.17094-0.32839 0.09447-0.61629 0.14395t-0.79173 0.04948z"/>
   <path d="m19.37 10.536q0 0.44985-0.15745 0.8817-0.15745 0.42735-0.44985 0.71976-0.40036 0.39586-0.89519 0.5983-0.49033 0.20243-1.2236 0.20243h-1.0751v2.1818h-1.7274v-6.6982h2.843q0.63878 0 1.0751 0.11246 0.44085 0.10796 0.77824 0.32839 0.40486 0.26541 0.61629 0.67927 0.21593 0.41386 0.21593 0.99416zm-1.7859 0.04049q0-0.2834-0.15295-0.48584-0.15295-0.20693-0.35538-0.28791-0.26991-0.10796-0.52632-0.11696-0.25641-0.013495-0.68377-0.013495h-0.2969v2.0063h0.49483q0.44085 0 0.72425-0.05398 0.2879-0.05398 0.48134-0.21593 0.16644-0.14395 0.23842-0.34188 0.07647-0.20243 0.07647-0.49033z"/>
  </g>
 </g>
</svg>
