<?xml version="1.0" encoding="UTF-8"?>
<svg width="91" height="91" version="1.1" viewBox="0 0 91 91" xmlns="http://www.w3.org/2000/svg" xmlns:cc="http://creativecommons.org/ns#" xmlns:dc="http://purl.org/dc/elements/1.1/" xmlns:rdf="http://www.w3.org/1999/02/22-rdf-syntax-ns#" xmlns:xlink="http://www.w3.org/1999/xlink">
 <title>Preplan_FireSuppression_WS_HF</title>
 <metadata>
  <rdf:RDF>
   <cc:Work rdf:about="">
    <dc:format>image/svg+xml</dc:format>
    <dc:type rdf:resource="http://purl.org/dc/dcmitype/StillImage"/>
    <dc:title>Preplan_FireSuppression_WS_HF</dc:title>
   </cc:Work>
  </rdf:RDF>
 </metadata>
 <g transform="translate(35.033 35.066)">
  <ellipse cx="10.467" cy="10.433" rx="42.178" ry="42.029" fill="#b10000" fill-rule="evenodd" opacity=".98" stroke="#470000" stroke-linecap="round" stroke-linejoin="round" stroke-width="5.65"/>
  <path d="m-7.2758 43.785c0-1.3963 0.1716-1.6064 2.0414-2.4992l1.4159-0.6761 0.00284-10.254 0.00284-10.254h-1.4185c-1.959 0-3.0388-0.28755-6.0186-1.6026l-2.5746-1.1362 0.06467-4.0768c0.03558-2.2422 0.10735-4.9023 0.15958-5.9112l0.09493-1.8344 2.0854-0.74741c2.8013-1.004 4.2642-1.3574 6.0825-1.4695l1.5247-0.094097v-7.1662h-3.4614v-4.2067h1.1403c0.62718 0 1.2604-0.041959 1.4072-0.093384 0.45158-0.15795 0.74344-0.88719 0.90713-2.2666 0.22302-1.8794 1.0663-4.3605 2.1657-6.3721 0.59306-1.0851 2.0823-2.777 3.6281-4.1217 1.5374-1.3375 2.1851-1.7793 3.4775-2.3721 0.60604-0.27796 1.1191-0.62979 1.2393-0.84991 0.1282-0.23466 0.20615-1.0381 0.20767-2.1409l0.00284-1.7653h6.2151l0.09022 1.7847c0.0495 0.9816 0.17472 1.9287 0.27797 2.1046 0.10334 0.1759 0.68147 0.52385 1.2849 0.77323 2.9386 1.2145 6.2797 4.2996 8.0886 7.4688 0.99204 1.738 1.4766 2.9824 2.0319 5.2186 0.64956 2.6156 0.66339 2.6321 2.2069 2.6321h1.2324v4.2067h-2.967v7.1678l1.6129 0.081055c1.8397 0.092396 3.5483 0.55383 6.1753 1.6677l1.6071 0.68143v11.675l-2.184 1.0697c-2.8354 1.3887-3.4666 1.5787-5.5218 1.6619l-1.6895 0.06845v20.545l0.9771 0.44955c1.3559 0.62389 1.4954 0.85166 1.4954 2.4428v1.3187h-35.109v-1.1065z" fill="#fff" fill-rule="evenodd" stroke="#d60000" stroke-linecap="round" stroke-linejoin="bevel" stroke-width=".4"/>
 </g>
</svg>
