<?xml version="1.0" encoding="UTF-8"?>
<svg width="91" height="91" version="1.1" viewBox="0 0 91 91" xmlns="http://www.w3.org/2000/svg" xmlns:cc="http://creativecommons.org/ns#" xmlns:dc="http://purl.org/dc/elements/1.1/" xmlns:rdf="http://www.w3.org/1999/02/22-rdf-syntax-ns#">
 <title>91px_91px_HCH_FireHouseHaz</title>
 <defs>
  <style type="text/css">.str0 {stroke:#D9DADA;stroke-width:0.749401}
    .str1 {stroke:#231F20;stroke-width:0.749401}
    .fil0 {fill:none}
    .fil2 {fill:#231F20}
    .fil1 {fill:#ED1C24}</style>
  <style type="text/css">.str0 {stroke:#D9DADA;stroke-width:0.749401}
    .str1 {stroke:#231F20;stroke-width:0.749401}
    .fil0 {fill:none}
    .fil2 {fill:#231F20}
    .fil1 {fill:#ED1C24}</style>
  <style type="text/css">.str0 {stroke:#D9DADA;stroke-width:0.749401}
    .str1 {stroke:#231F20;stroke-width:0.749401}
    .fil0 {fill:none}
    .fil2 {fill:#231F20}
    .fil1 {fill:#ED1C24}</style>
  <style type="text/css">.str0 {stroke:#D9DADA;stroke-width:0.749401}
    .str1 {stroke:#231F20;stroke-width:0.749401}
    .fil0 {fill:none}
    .fil2 {fill:#231F20}
    .fil1 {fill:#ED1C24}</style>
  <style type="text/css">.str0 {stroke:#D9DADA;stroke-width:0.749401}
    .str1 {stroke:#231F20;stroke-width:0.749401}
    .fil0 {fill:none}
    .fil2 {fill:#231F20}
    .fil1 {fill:#ED1C24}</style>
  <style type="text/css">.str0 {stroke:#D9DADA;stroke-width:0.749401}
    .str1 {stroke:#231F20;stroke-width:0.749401}
    .fil0 {fill:none}
    .fil2 {fill:#231F20}
    .fil1 {fill:#ED1C24}</style>
  <style type="text/css">.str0 {stroke:#D9DADA;stroke-width:0.749401}
    .str1 {stroke:#231F20;stroke-width:0.749401}
    .fil0 {fill:none}
    .fil2 {fill:#231F20}
    .fil1 {fill:#ED1C24}</style>
  <style type="text/css">.str0 {stroke:#D9DADA;stroke-width:0.749401}
    .str1 {stroke:#231F20;stroke-width:0.749401}
    .fil0 {fill:none}
    .fil2 {fill:#231F20}
    .fil1 {fill:#ED1C24}</style>
  <style type="text/css">.str0 {stroke:#D9DADA;stroke-width:0.749401}
    .str1 {stroke:#231F20;stroke-width:0.749401}
    .fil0 {fill:none}
    .fil2 {fill:#231F20}
    .fil1 {fill:#ED1C24}</style>
  <style type="text/css">.str0 {stroke:#D9DADA;stroke-width:0.749401}
    .str1 {stroke:#231F20;stroke-width:0.749401}
    .fil0 {fill:none}
    .fil2 {fill:#231F20}
    .fil1 {fill:#ED1C24}</style>
  <style type="text/css">.str0 {stroke:#D9DADA;stroke-width:0.749401}
    .str1 {stroke:#231F20;stroke-width:0.749401}
    .fil0 {fill:none}
    .fil2 {fill:#231F20}
    .fil1 {fill:#ED1C24}</style>
  <style type="text/css">.str0 {stroke:#D9DADA;stroke-width:0.749401}
    .str1 {stroke:#231F20;stroke-width:0.749401}
    .fil0 {fill:none}
    .fil2 {fill:#231F20}
    .fil1 {fill:#ED1C24}</style>
  <style type="text/css">.str0 {stroke:#D9DADA;stroke-width:0.749401}
    .str1 {stroke:#231F20;stroke-width:0.749401}
    .fil0 {fill:none}
    .fil2 {fill:#231F20}
    .fil1 {fill:#ED1C24}</style>
  <style type="text/css">.str0 {stroke:#D9DADA;stroke-width:0.749401}
    .str1 {stroke:#231F20;stroke-width:0.749401}
    .fil0 {fill:none}
    .fil2 {fill:#231F20}
    .fil1 {fill:#ED1C24}</style>
  <style type="text/css">.str0 {stroke:#D9DADA;stroke-width:0.749401}
    .str1 {stroke:#231F20;stroke-width:0.749401}
    .fil0 {fill:none}
    .fil2 {fill:#231F20}
    .fil1 {fill:#ED1C24}</style>
  <style type="text/css">.str0 {stroke:#D9DADA;stroke-width:0.749401}
    .str1 {stroke:#231F20;stroke-width:0.749401}
    .fil0 {fill:none}
    .fil2 {fill:#231F20}
    .fil1 {fill:#ED1C24}</style>
  <style type="text/css">.str0 {stroke:#D9DADA;stroke-width:0.749401}
    .str1 {stroke:#231F20;stroke-width:0.749401}
    .fil0 {fill:none}
    .fil2 {fill:#231F20}
    .fil1 {fill:#ED1C24}</style>
  <style type="text/css">.str0 {stroke:#D9DADA;stroke-width:0.749401}
    .str1 {stroke:#231F20;stroke-width:0.749401}
    .fil0 {fill:none}
    .fil2 {fill:#231F20}
    .fil1 {fill:#ED1C24}</style>
  <style type="text/css">.str0 {stroke:#D9DADA;stroke-width:0.749401}
    .str1 {stroke:#231F20;stroke-width:0.749401}
    .fil0 {fill:none}
    .fil2 {fill:#231F20}
    .fil1 {fill:#ED1C24}</style>
  <style type="text/css">.str0 {stroke:#D9DADA;stroke-width:0.749401}
    .str1 {stroke:#231F20;stroke-width:0.749401}
    .fil0 {fill:none}
    .fil2 {fill:#231F20}
    .fil1 {fill:#ED1C24}</style>
  <style type="text/css">.str0 {stroke:#D9DADA;stroke-width:0.749401}
    .str1 {stroke:#231F20;stroke-width:0.749401}
    .fil0 {fill:none}
    .fil2 {fill:#231F20}
    .fil1 {fill:#ED1C24}</style>
  <style type="text/css">.str0 {stroke:#D9DADA;stroke-width:0.749401}
    .str1 {stroke:#231F20;stroke-width:0.749401}
    .fil0 {fill:none}
    .fil2 {fill:#231F20}
    .fil1 {fill:#ED1C24}</style>
  <style type="text/css">.str0 {stroke:#D9DADA;stroke-width:0.749401}
    .str1 {stroke:#231F20;stroke-width:0.749401}
    .fil0 {fill:none}
    .fil2 {fill:#231F20}
    .fil1 {fill:#ED1C24}</style>
  <style type="text/css">.str0 {stroke:#D9DADA;stroke-width:0.749401}
    .str1 {stroke:#231F20;stroke-width:0.749401}
    .fil0 {fill:none}
    .fil2 {fill:#231F20}
    .fil1 {fill:#ED1C24}</style>
  <style type="text/css">.str0 {stroke:#D9DADA;stroke-width:0.749401}
    .str1 {stroke:#231F20;stroke-width:0.749401}
    .fil0 {fill:none}
    .fil2 {fill:#231F20}
    .fil1 {fill:#ED1C24}</style>
  <style type="text/css">.str0 {stroke:#D9DADA;stroke-width:0.749401}
    .str1 {stroke:#231F20;stroke-width:0.749401}
    .fil0 {fill:none}
    .fil2 {fill:#231F20}
    .fil1 {fill:#ED1C24}</style>
  <style type="text/css">.str0 {stroke:#D9DADA;stroke-width:0.749401}
    .str1 {stroke:#231F20;stroke-width:0.749401}
    .fil0 {fill:none}
    .fil2 {fill:#231F20}
    .fil1 {fill:#ED1C24}</style>
  <style type="text/css">.str0 {stroke:#D9DADA;stroke-width:0.749401}
    .str1 {stroke:#231F20;stroke-width:0.749401}
    .fil0 {fill:none}
    .fil2 {fill:#231F20}
    .fil1 {fill:#ED1C24}</style>
  <style type="text/css">.str0 {stroke:#D9DADA;stroke-width:0.749401}
    .str1 {stroke:#231F20;stroke-width:0.749401}
    .fil0 {fill:none}
    .fil2 {fill:#231F20}
    .fil1 {fill:#ED1C24}</style>
  <style type="text/css">.str0 {stroke:#D9DADA;stroke-width:0.749401}
    .str1 {stroke:#231F20;stroke-width:0.749401}
    .fil0 {fill:none}
    .fil2 {fill:#231F20}
    .fil1 {fill:#ED1C24}</style>
 </defs>
 <metadata>
  <rdf:RDF>
   <cc:Work rdf:about="">
    <dc:format>image/svg+xml</dc:format>
    <dc:type rdf:resource="http://purl.org/dc/dcmitype/StillImage"/>
    <dc:title>91px_91px_HCH_FireHouseHaz</dc:title>
   </cc:Work>
  </rdf:RDF>
 </metadata>
 <g transform="matrix(4.3787 0 0 4.3787 -.47704 -4048)">
  <path d="m0.52119 934.88 9.9749-10.015 9.9856 10.015-9.9856 9.9909z" fill="#fff"/>
 </g>
 <g transform="matrix(4.3787 0 0 4.3787 -.47704 -.5062)" stroke-width=".17042">
  <path d="m9.0157 16.584c-1.2347-0.18838-2.107-0.55298-2.4829-1.0378-0.31324-0.40398-0.84403-1.6324-1.241-2.8722-0.3935-1.2289-0.86757-2.2099-1.2889-2.6669-0.27493-0.29824-0.27939-0.31151-0.13814-0.41121 0.8221-0.09925 1.4762 0.060519 2.142 0.468 0.39881-0.83936 0.020254-1.7353-0.2209-2.4076 0.77353 0.046493 1.4411 0.5266 1.9388 0.86123 0.28652-1.2622 0.13174-2.282-0.11066-3.4204 0.8042-0.14564 1.3727 0.27119 1.7988 0.58934 0.23356 0.31714 0.23864 0.31965 0.30779 0.15207 0.038671-0.093716 0.088193-0.66151 0.11005-1.2618 0.021862-0.60025 0.063309-1.1327 0.092103-1.1832 0.035062-0.061484 0.18958 0.078062 0.46778 0.42246 0.84243 1.0429 1.3273 1.9862 1.5452 3.0065 0.37253 1.1389 0.39054-0.22634 0.46927-0.908 1.438 0.88962 1.3162 1.9076 1.5483 2.8698 0.66712-0.26832 0.82102-0.82409 1.0931-1.4026 1.385 0.568 0.98348 1.9535 0.47401 3.3596 0.40463-0.55048 1.0281-0.97807 1.5634-1.2919 0.42191 0.88189-0.16882 2.5304-0.74771 3.3077-0.18478 0.24466-0.6195 0.96764-0.96605 1.6066-0.99269 1.9747-3.0212 2.2709-4.3504 2.295-0.92126 0.01629-1.5644-0.0078-2.0041-0.07483zm1.3589-2.65h0.871v1.873h2.186v-2.922h0.79129c0-0.1132-3.2896-3.9075-3.3895-3.9075l-1.4938 1.3998c-0.037871-0.2304 0.069128-0.34274 0-0.39747l-1.221 0.032628v1.9232l-0.6787 0.94929h0.8037v2.922h2.131z" fill-rule="evenodd"/>
 </g>
 <g transform="translate(35 -889.37)">
  <path d="m-33.195 934.92c19.008-20.165 31.989-31.926 43.677-43.852 15.116 15.054 31.574 30.39 43.724 43.852-12.099 13.962-28.325 28.631-43.724 43.747-13.694-13.757-30.558-28.601-43.677-43.747z" fill="none" stroke="#0f1600" stroke-linecap="round" stroke-width="1.6973"/>
 </g>
</svg>
